<svg version="1.1" id="Layer_1" xmlns="http://www.w3.org/2000/svg" xmlns:xlink="http://www.w3.org/1999/xlink" x="0px" y="0px"
	 width="100%" viewBox="0 0 140 140" enable-background="new 0 0 140 140" xml:space="preserve">
<path fill="#63AFD4" opacity="1.000000" stroke="none" 
	d="
M61.000000,141.000000 
	C40.666668,141.000000 20.833338,141.000000 1.000005,141.000000 
	C1.000004,94.333344 1.000004,47.666683 1.000002,1.000018 
	C47.666653,1.000012 94.333305,1.000012 140.999969,1.000006 
	C140.999969,47.666645 140.999969,94.333290 140.999985,140.999969 
	C114.500000,141.000000 88.000000,141.000000 61.000000,141.000000 
M15.200583,84.721237 
	C14.471995,86.253586 13.743406,87.785934 12.552155,90.291336 
	C22.469536,83.341217 31.427359,77.281235 40.144268,70.892540 
	C48.597103,64.697388 55.720413,57.166088 59.481590,47.207230 
	C61.694111,41.348904 62.945961,35.127766 64.629890,29.069811 
	C63.999203,28.610374 63.368511,28.150938 62.737820,27.691504 
	C56.974724,41.552902 45.564747,45.937870 32.334110,47.297493 
	C31.690998,47.363583 31.071880,47.711826 30.452990,47.957417 
	C24.565754,50.293575 19.769970,53.885647 16.309309,59.396744 
	C21.867348,57.443844 26.847357,55.063801 32.092327,54.036366 
	C36.904736,53.093662 39.034092,56.523979 36.536316,60.791641 
	C34.714458,63.904438 32.129250,66.611603 29.664919,69.298340 
	C25.059433,74.319473 20.294529,79.194382 15.200583,84.721237 
M93.752754,86.000946 
	C93.851562,83.750137 93.950371,81.499321 94.014328,80.042313 
	C96.952911,77.231071 102.498558,81.581230 102.564903,76.208504 
	C102.633896,70.621590 96.720688,75.027298 94.206154,72.296997 
	C94.206154,71.008347 94.206154,69.326378 94.206154,67.132454 
	C97.063148,67.132454 99.521317,67.160416 101.978630,67.126297 
	C106.315926,67.066086 105.080948,64.559593 104.437546,62.256203 
	C98.892044,62.256203 93.677849,62.256203 88.256287,62.256203 
	C88.256287,71.380684 88.256287,80.088188 88.256287,90.801903 
	C90.795357,88.967278 92.263405,87.906532 93.752754,86.000946 
M113.155075,67.251221 
	C113.746979,68.775894 114.792633,70.283875 114.849419,71.828224 
	C115.055702,77.438179 114.930801,83.060310 114.930801,88.810356 
	C118.824707,89.953339 121.079567,89.671509 120.823540,85.050468 
	C120.594269,80.912369 120.859016,76.749321 120.751663,72.601273 
	C120.666801,69.322266 120.758018,66.542320 125.359154,66.973564 
	C126.114128,67.044327 127.460510,65.363091 127.724335,64.292221 
	C127.867294,63.711910 126.326057,62.037079 125.503502,62.007759 
	C119.759270,61.802982 114.004303,61.899456 108.525955,61.899456 
	C107.084183,66.396576 108.903374,67.469208 113.155075,67.251221 
M62.067635,82.116798 
	C62.067635,75.537758 62.067635,68.958710 62.067635,62.105282 
	C59.112984,61.976444 56.316189,60.659836 56.309231,64.925758 
	C56.297607,72.049362 56.189861,79.177101 56.436230,86.292244 
	C56.473652,87.373055 58.135445,89.223839 59.153828,89.301392 
	C63.554630,89.636543 67.995560,89.444839 72.234398,89.444839 
	C73.678383,85.416557 72.688980,83.883408 68.916161,83.955170 
	C66.711975,83.997101 64.494713,83.351440 62.067635,82.116798 
M41.321991,39.188835 
	C47.679893,39.826294 51.947433,35.877823 50.554417,30.529299 
	C49.676048,27.156773 47.493034,25.072418 43.864910,24.913776 
	C40.266529,24.756432 37.783760,26.501251 36.689743,29.855595 
	C35.362534,33.924908 36.942257,36.937294 41.321991,39.188835 
M81.043121,89.318886 
	C81.597649,87.918388 82.591698,86.530121 82.631035,85.115295 
	C82.806610,78.800926 82.542999,72.473053 82.767281,66.161758 
	C82.927155,61.662651 80.977654,61.017796 76.972702,62.481419 
	C76.972702,70.433640 76.851562,78.399414 77.117966,86.352196 
	C77.153358,87.408844 79.157600,88.399544 81.043121,89.318886 
z"/>
<path fill="#F9FCFD" opacity="1.000000" stroke="none" 
	d="
M15.398269,84.425682 
	C20.294529,79.194382 25.059433,74.319473 29.664919,69.298340 
	C32.129250,66.611603 34.714458,63.904438 36.536316,60.791641 
	C39.034092,56.523979 36.904736,53.093662 32.092327,54.036366 
	C26.847357,55.063801 21.867348,57.443844 16.309309,59.396744 
	C19.769970,53.885647 24.565754,50.293575 30.452990,47.957417 
	C31.071880,47.711826 31.690998,47.363583 32.334110,47.297493 
	C45.564747,45.937870 56.974724,41.552902 62.737820,27.691504 
	C63.368511,28.150938 63.999203,28.610374 64.629890,29.069811 
	C62.945961,35.127766 61.694111,41.348904 59.481590,47.207230 
	C55.720413,57.166088 48.597103,64.697388 40.144268,70.892540 
	C31.427359,77.281235 22.469536,83.341217 12.552155,90.291336 
	C13.743406,87.785934 14.471995,86.253586 15.398269,84.425682 
z"/>
<path fill="#F6FAFC" opacity="1.000000" stroke="none" 
	d="
M93.742104,86.423363 
	C92.263405,87.906532 90.795357,88.967278 88.256287,90.801903 
	C88.256287,80.088188 88.256287,71.380684 88.256287,62.256203 
	C93.677849,62.256203 98.892044,62.256203 104.437546,62.256203 
	C105.080948,64.559593 106.315926,67.066086 101.978630,67.126297 
	C99.521317,67.160416 97.063148,67.132454 94.206154,67.132454 
	C94.206154,69.326378 94.206154,71.008347 94.206154,72.296997 
	C96.720688,75.027298 102.633896,70.621590 102.564903,76.208504 
	C102.498558,81.581230 96.952911,77.231071 94.014328,80.042313 
	C93.950371,81.499321 93.851562,83.750137 93.742104,86.423363 
z"/>
<path fill="#F8FBFD" opacity="1.000000" stroke="none" 
	d="
M112.713654,67.210854 
	C108.903374,67.469208 107.084183,66.396576 108.525955,61.899456 
	C114.004303,61.899456 119.759270,61.802982 125.503502,62.007759 
	C126.326057,62.037079 127.867294,63.711910 127.724335,64.292221 
	C127.460510,65.363091 126.114128,67.044327 125.359154,66.973564 
	C120.758018,66.542320 120.666801,69.322266 120.751663,72.601273 
	C120.859016,76.749321 120.594269,80.912369 120.823540,85.050468 
	C121.079567,89.671509 118.824707,89.953339 114.930801,88.810356 
	C114.930801,83.060310 115.055702,77.438179 114.849419,71.828224 
	C114.792633,70.283875 113.746979,68.775894 112.713654,67.210854 
z"/>
<path fill="#F3F9FB" opacity="1.000000" stroke="none" 
	d="
M62.175484,82.565964 
	C64.494713,83.351440 66.711975,83.997101 68.916161,83.955170 
	C72.688980,83.883408 73.678383,85.416557 72.234398,89.444839 
	C67.995560,89.444839 63.554630,89.636543 59.153828,89.301392 
	C58.135445,89.223839 56.473652,87.373055 56.436230,86.292244 
	C56.189861,79.177101 56.297607,72.049362 56.309231,64.925758 
	C56.316189,60.659836 59.112984,61.976444 62.067635,62.105282 
	C62.067635,68.958710 62.067635,75.537758 62.175484,82.565964 
z"/>
<path fill="#F8FBFD" opacity="1.000000" stroke="none" 
	d="
M40.969666,39.067741 
	C36.942257,36.937294 35.362534,33.924908 36.689743,29.855595 
	C37.783760,26.501251 40.266529,24.756432 43.864910,24.913776 
	C47.493034,25.072418 49.676048,27.156773 50.554417,30.529299 
	C51.947433,35.877823 47.679893,39.826294 40.969666,39.067741 
z"/>
<path fill="#F1F8FB" opacity="1.000000" stroke="none" 
	d="
M80.646591,89.369835 
	C79.157600,88.399544 77.153358,87.408844 77.117966,86.352196 
	C76.851562,78.399414 76.972702,70.433640 76.972702,62.481419 
	C80.977654,61.017796 82.927155,61.662651 82.767281,66.161758 
	C82.542999,72.473053 82.806610,78.800926 82.631035,85.115295 
	C82.591698,86.530121 81.597649,87.918388 80.646591,89.369835 
z"/>
</svg>